# Exported from ProBuilder
# http://www.procore3d.com/probuilder
# 8/22/2018 7:46:24 PM

mtllib ./Full_platform.mtl
o Full platform

g Full platform
v 3 -0.5 10
v -3 -0.5 10
v 5.51252 0.5 10
v -5.157547 0.5 10
v -3 -0.5 -10
v 3 -0.5 -10
v -5.157547 0.5 -10
v 5.51252 0.5 -10
v 5.51252 0.5 10
v -5.157547 0.5 10
v 5.51252 0.5 -10
v -5.157547 0.5 -10
v 3 -0.5 -10
v -3 -0.5 -10
v 3 -0.5 10
v -3 -0.5 10
v -5.157547 0.5 -10
v -5.157547 0.5 10
v -8.881638 10.02252 -10
v -8.881638 10.02252 10
v -8.881638 11.00806 -3.333333
v -8.881638 10.66595 3.333334
v -18.60836 16.67605 10
v -8.881638 10.02252 -10
v -8.881638 10.02252 10
v -18.60836 16.67605 -10
v -8.881638 11.00806 -3.333333
v -8.881638 10.66595 3.333334
v 5.51252 0.5 10
v 5.51252 0.5 -10
v 8.40942 11.07279 10
v 8.40942 11.07279 -10
v 8.168331 11.93296 -3.333333
v 8.153397 11.80193 3.333334
v 19.57991 20.13192 -10
v 8.40942 11.07279 10
v 8.40942 11.07279 -10
v 19.57991 20.13192 10
v 8.168331 11.93296 -3.333333
v 8.153397 11.80193 3.333334

vn 0 0 1
vn 0 0 1
vn 0 0 1
vn 0 0 1
vn 0 0 -1
vn 0 0 -1
vn 0 0 -1
vn 0 0 -1
vn 0 1 0
vn 0 1 0
vn 0 1 0
vn 0 1 0
vn 0 -1 0
vn 0 -1 0
vn 0 -1 0
vn 0 -1 0
vn 0.9399371 0.3411149 -0.01260684
vn 0.9390191 0.3437148 0.01016234
vn 0.9299659 0.3636933 -0.05376516
vn 0.930738 0.3639953 0.03513086
vn 0.9390469 0.343725 -0.006634895
vn 0.9328991 0.359158 0.02654735
vn 0.5249634 0.850753 0.02515355
vn 0.5604355 0.819294 -0.121117
vn 0.562809 0.8227638 0.07940873
vn 0.5192884 0.854016 -0.03156251
vn 0.5250588 0.8509076 -0.01642499
vn 0.5547417 0.8297591 0.06133209
vn -0.9721472 0.2340102 0.01300056
vn -0.9717875 0.2352892 -0.01637542
vn -0.9623626 0.2636834 0.06579763
vn -0.9621666 0.2636297 -0.06881041
vn -0.9721516 0.2340112 -0.01265502
vn -0.9686835 0.2460432 0.0333885
vn -0.5951934 0.8029733 -0.03128229
vn -0.6261671 0.7721035 0.1084934
vn -0.6251745 0.7708794 -0.1220724
vn -0.5951169 0.8032474 0.02508887
vn -0.595159 0.8033043 -0.02208648
vn -0.611306 0.7889658 0.06195226

vt 3 -0.5
vt -3 -0.5
vt 5.51252 0.5
vt -5.157547 0.5
vt 3 -0.5
vt -3 -0.5
vt 5.157547 0.5
vt -5.51252 0.5
vt -5.51252 10
vt 5.157547 10
vt -5.51252 -10
vt 5.157547 -10
vt 3 -10
vt -3 -10
vt 3 10
vt -3 10
vt 9.994799 2.274466
vt -10.00519 2.267424
vt 9.991047 12.49803
vt -10.00894 12.49099
vt 3.324383 13.41908
vt -3.34228 13.09619
vt 24.66875 9.990936
vt 12.88905 -10.00823
vt 12.88905 9.991715
vt 24.66875 -10.00901
vt 13.42159 -3.343467
vt 13.23673 3.323836
vt 10.00078 1.824265
vt -9.999222 1.824952
vt 10.00119 12.7841
vt -9.998812 12.78478
vt -3.332179 13.56036
vt 3.334486 13.4294
vt -27.78452 -10.00306
vt -13.40799 9.997237
vt -13.40799 -10.00276
vt -27.78452 9.996935
vt -13.73938 -3.336714
vt -13.64788 3.330022

g Full platform_0
usemtl Default-Material
f 3/3/3 4/4/4 2/2/2 1/1/1
f 7/7/7 8/8/8 6/6/6 5/5/5
f 11/11/11 12/12/12 10/10/10 9/9/9
f 15/15/15 16/16/16 14/14/14 13/13/13

g Full platform_1
usemtl Default-Material
f 21/21/21 17/17/17 19/19/19
f 17/17/17 21/21/21 18/18/18
f 18/18/18 21/21/21 22/22/22
f 22/22/22 20/20/20 18/18/18
f 27/27/27 24/24/24 26/26/26
f 26/26/26 23/23/23 27/27/27
f 23/23/23 28/28/28 27/27/27
f 23/23/23 25/25/25 28/28/28
f 34/34/34 29/29/29 31/31/31
f 34/34/34 33/33/33 29/29/29
f 29/29/29 33/33/33 30/30/30
f 33/33/33 32/32/32 30/30/30
f 35/35/35 37/37/37 39/39/39
f 38/38/38 35/35/35 39/39/39
f 40/40/40 38/38/38 39/39/39
f 38/38/38 40/40/40 36/36/36

