# Exported from ProBuilder
# http://www.procore3d.com/probuilder
# 8/12/2018 6:40:57 PM

mtllib ./Platform.mtl
o Platform

g MultipleObstaclesPlatform 1 trail
v 3 -0.5 10
v -3 -0.5 10
v 3 0.5 10
v -3 0.5 10
v -3 -0.5 10
v -3 -0.5 -10
v -3 0.5 10
v -3 0.5 -10
v -3 -0.5 -10
v 3 -0.5 -10
v -3 0.5 -10
v 3 0.5 -10
v 3 -0.5 -10
v 3 -0.5 10
v 3 0.5 -10
v 3 0.5 10
v 3 0.5 10
v -3 0.5 10
v 3 0.5 -10
v -3 0.5 -10
v 3 -0.5 -10
v -3 -0.5 -10
v 3 -0.5 10
v -3 -0.5 10

vn 0 0 1
vn 0 0 1
vn 0 0 1
vn 0 0 1
vn -1 0 0
vn -1 0 0
vn -1 0 0
vn -1 0 0
vn 0 0 -1
vn 0 0 -1
vn 0 0 -1
vn 0 0 -1
vn 1 0 0
vn 1 0 0
vn 1 0 0
vn 1 0 0
vn 0 1 0
vn 0 1 0
vn 0 1 0
vn 0 1 0
vn 0 -1 0
vn 0 -1 0
vn 0 -1 0
vn 0 -1 0

vt 3 -0.5
vt -3 -0.5
vt 3 0.5
vt -3 0.5
vt 10 -0.5
vt -10 -0.5
vt 10 0.5
vt -10 0.5
vt 3 -0.5
vt -3 -0.5
vt 3 0.5
vt -3 0.5
vt 10 -0.5
vt -10 -0.5
vt 10 0.5
vt -10 0.5
vt -3 10
vt 3 10
vt -3 -10
vt 3 -10
vt 3 -10
vt -3 -10
vt 3 10
vt -3 10

g MultipleObstaclesPlatform 1 trail
usemtl Grass_Green_01
f 3/3/3 4/4/4 2/2/2 1/1/1
f 7/7/7 8/8/8 6/6/6 5/5/5
f 11/11/11 12/12/12 10/10/10 9/9/9
f 15/15/15 16/16/16 14/14/14 13/13/13
f 19/19/19 20/20/20 18/18/18 17/17/17
f 23/23/23 24/24/24 22/22/22 21/21/21

