# Exported from ProBuilder
# http://www.procore3d.com/probuilder
# 8/13/2018 6:19:00 PM

mtllib ./Right_side.mtl
o Right side

g Left mountain side (2)
v -2.7054 0.5 10.17128
v -7.730001 0.5 10.17128
v -2.705399 0.5 0.3600007
v -7.73 0.5 0.3600001
v -7.730001 0.5 10.17128
v -13.06579 10.55281 10.17128
v -7.73 0.5 0.3600001
v -12.69236 10.77805 0.3599995
v -2.705399 0.5 0.3600007
v -7.73 0.5 0.3600001
v -2.705397 0.5 -10.2776
v -7.729999 0.5 -10.2776
v -7.73 0.5 0.3600001
v -12.69236 10.77805 0.3599995
v -7.729999 0.5 -10.2776
v -13.06579 10.55281 -10.2776
v -13.06579 10.55281 10.17128
v -12.69236 10.77805 0.3599995
v -18.9388 14.77439 10.17128
v -18.9388 14.77439 0.3599995
v -12.69236 10.77805 0.3599995
v -13.06579 10.55281 -10.2776
v -18.9388 14.77439 0.3599995
v -18.9388 14.77439 -10.2776

vn 0 0.27914 0
vn 0 0.27914 0
vn 0 0.27914 0
vn 0 0.27914 0
vn 0.2488721 0.1260604 0.01467536
vn 0.2459873 0.1305639 0.02933547
vn 0.2513751 0.1213665 2.986568E-08
vn 0.2488721 0.1260604 0.01467536
vn 0 0.27914 0
vn 0 0.27914 0
vn 0 0.27914 0
vn 0 0.27914 0
vn 0.2488937 0.1260713 -0.01353652
vn 0.2508795 0.1211272 -0.02699006
vn 0.2465616 0.1308687 2.819267E-08
vn 0.2488937 0.1260713 -0.01353652
vn 0.1626037 0.2262117 0.02701433
vn 0.1565839 0.2309229 0.01336362
vn 0.1565839 0.2309229 0.01336362
vn 0.1504349 0.2351351 1.793324E-08
vn 0.1501943 0.2347591 -0.02431145
vn 0.1565952 0.2309396 -0.0123264
vn 0.1565952 0.2309396 -0.0123264
vn 0.1629255 0.2266594 1.942223E-08

vt -22.81479 -18.00027
vt -22.81479 -5.924633E-09
vt 0 -18.00027
vt 0 0
vt -22.81479 5.528938E-16
vt -22.81479 40.77204
vt 0 0
vt 1.08134E-07 40.85756
vt 0 -18.00027
vt 0 0
vt 24.73627 -18.00027
vt 24.73627 7.812985E-08
vt 0 0
vt 1.596673E-07 40.88733
vt 24.73627 1.063039E-15
vt 24.73627 40.74236
vt -19.96328 37.47992
vt 2.845634 35.83404
vt -18.79447 63.36469
vt 3.952082 62.33758
vt -2.469511 34.75157
vt 22.26518 36.3387
vt -3.429718 61.29953
vt 21.25085 62.1922

g Left mountain side (2)
usemtl Grass_Green_01
f 3/3/3 4/4/4 2/2/2 1/1/1
f 7/7/7 8/8/8 6/6/6 5/5/5
f 11/11/11 12/12/12 10/10/10 9/9/9
f 15/15/15 16/16/16 14/14/14 13/13/13
f 20/20/20 19/19/19 17/17/17 18/18/18
f 24/24/24 23/23/23 21/21/21 22/22/22

