# Blender v2.79 (sub 0) OBJ File: 'F.blend'
# www.blender.org
mtllib F.mtl
o A_Text
v 0.054957 0.751009 -0.000000
v 0.076741 0.750539 -0.000000
v 0.096630 0.749128 -0.000000
v 0.114625 0.746776 -0.000000
v 0.130726 0.743482 -0.000000
v 0.144933 0.739248 -0.000000
v 0.157245 0.734074 -0.000000
v 0.167664 0.727958 -0.000000
v 0.176188 0.720901 -0.000000
v 0.182817 0.712904 -0.000000
v 0.187553 0.703965 -0.000000
v 0.190394 0.694086 -0.000000
v 0.191341 0.683266 -0.000000
v 0.191341 0.677882 -0.000000
v 0.189986 0.670359 -0.000000
v 0.188164 0.663489 -0.000000
v 0.185874 0.657273 -0.000000
v 0.183116 0.651712 -0.000000
v 0.179892 0.646805 -0.000000
v 0.176200 0.642553 -0.000000
v 0.172041 0.638954 -0.000000
v 0.167414 0.636010 -0.000000
v 0.162320 0.633720 -0.000000
v 0.156759 0.632085 -0.000000
v 0.150731 0.631103 -0.000000
v 0.144235 0.630776 -0.000000
v 0.142821 0.630848 -0.000000
v 0.140073 0.631063 -0.000000
v 0.135991 0.631421 -0.000000
v 0.130577 0.631923 -0.000000
v 0.123828 0.632568 -0.000000
v 0.115747 0.633356 -0.000000
v 0.106332 0.634287 -0.000000
v 0.095583 0.635362 -0.000000
v 0.083501 0.636580 -0.000000
v 0.070086 0.637942 -0.000000
v 0.055337 0.639447 -0.000000
v 0.039255 0.641095 -0.000000
v 0.020051 0.639824 -0.000000
v 0.002517 0.636010 -0.000000
v -0.013347 0.629655 -0.000000
v -0.027541 0.620757 -0.000000
v -0.040065 0.609317 -0.000000
v -0.050920 0.595334 -0.000000
v -0.060104 0.578810 -0.000000
v -0.067619 0.559743 -0.000000
v -0.073464 0.538134 -0.000000
v -0.077638 0.513982 -0.000000
v -0.080143 0.487289 -0.000000
v -0.080978 0.458053 -0.000000
v -0.080978 0.410947 -0.000000
v 0.123149 0.421265 -0.000000
v 0.128891 0.419505 -0.000000
v 0.134303 0.417514 -0.000000
v 0.139384 0.415293 -0.000000
v 0.144135 0.412841 -0.000000
v 0.148556 0.410158 -0.000000
v 0.152647 0.407245 -0.000000
v 0.156407 0.404102 -0.000000
v 0.159837 0.400728 -0.000000
v 0.162937 0.397123 -0.000000
v 0.165707 0.393288 -0.000000
v 0.168146 0.389222 -0.000000
v 0.170256 0.384926 -0.000000
v 0.170256 0.348138 -0.000000
v 0.168548 0.340614 -0.000000
v 0.163427 0.333745 -0.000000
v 0.154890 0.327529 -0.000000
v 0.142939 0.321968 -0.000000
v 0.127573 0.317061 -0.000000
v 0.108793 0.312808 -0.000000
v 0.086598 0.309210 -0.000000
v 0.060989 0.306266 -0.000000
v 0.031965 0.303976 -0.000000
v -0.000474 0.302340 -0.000000
v -0.036327 0.301359 -0.000000
v -0.075594 0.301032 -0.000000
v -0.072227 0.272790 -0.000000
v -0.069152 0.245638 -0.000000
v -0.066369 0.219577 -0.000000
v -0.063880 0.194606 -0.000000
v -0.061684 0.170726 -0.000000
v -0.059780 0.147936 -0.000000
v -0.058169 0.126237 -0.000000
v -0.056852 0.105628 -0.000000
v -0.055827 0.086109 -0.000000
v -0.055094 0.067681 -0.000000
v -0.054655 0.050343 -0.000000
v -0.054509 0.034096 -0.000000
v -0.054509 -0.002243 -0.000000
v -0.055970 -0.010627 -0.000000
v -0.057961 -0.018282 -0.000000
v -0.060481 -0.025208 -0.000000
v -0.063531 -0.031404 -0.000000
v -0.067111 -0.036872 -0.000000
v -0.071220 -0.041611 -0.000000
v -0.075859 -0.045620 -0.000000
v -0.081028 -0.048901 -0.000000
v -0.086726 -0.051452 -0.000000
v -0.092954 -0.053275 -0.000000
v -0.099712 -0.054369 -0.000000
v -0.106999 -0.054733 -0.000000
v -0.112382 -0.054733 -0.000000
v -0.119735 -0.054260 -0.000000
v -0.126539 -0.052839 -0.000000
v -0.132795 -0.050471 -0.000000
v -0.138503 -0.047156 -0.000000
v -0.143662 -0.042894 -0.000000
v -0.148273 -0.037685 -0.000000
v -0.152335 -0.031529 -0.000000
v -0.155850 -0.024426 -0.000000
v -0.158816 -0.016375 -0.000000
v -0.161233 -0.007378 -0.000000
v -0.163103 0.002567 -0.000000
v -0.164424 0.013459 -0.000000
v -0.164424 0.034096 -0.000000
v -0.190893 0.410947 -0.000000
v -0.190893 0.463436 -0.000000
v -0.189693 0.499324 -0.000000
v -0.186095 0.532962 -0.000000
v -0.180098 0.564351 -0.000000
v -0.171701 0.593490 -0.000000
v -0.160906 0.620380 -0.000000
v -0.147712 0.645020 -0.000000
v -0.132119 0.667411 -0.000000
v -0.114127 0.687553 -0.000000
v -0.093736 0.705445 -0.000000
v -0.070946 0.721088 -0.000000
v -0.045757 0.734482 -0.000000
v -0.018170 0.745626 -0.000000
v 0.054957 0.751009 -0.115000
v 0.076741 0.750539 -0.115000
v 0.096630 0.749128 -0.114997
v 0.114625 0.746775 -0.115000
v 0.130726 0.743482 -0.115000
v 0.144933 0.739248 -0.115000
v 0.157245 0.734074 -0.115000
v 0.167664 0.727958 -0.115000
v 0.176188 0.720901 -0.115000
v 0.182817 0.712904 -0.115000
v 0.187553 0.703965 -0.115000
v 0.190394 0.694086 -0.115000
v 0.191341 0.683266 -0.114997
v 0.191341 0.677882 -0.115000
v 0.189986 0.670358 -0.115000
v 0.188164 0.663489 -0.115000
v 0.185874 0.657273 -0.115000
v 0.183116 0.651712 -0.115000
v 0.179892 0.646805 -0.115000
v 0.176200 0.642553 -0.115000
v 0.172041 0.638954 -0.115000
v 0.167414 0.636010 -0.115000
v 0.162321 0.633720 -0.114997
v 0.156759 0.632085 -0.115000
v 0.150731 0.631103 -0.115000
v 0.144235 0.630776 -0.115000
v 0.142821 0.630848 -0.115000
v 0.140073 0.631063 -0.115000
v 0.135991 0.631421 -0.115000
v 0.130577 0.631923 -0.114997
v 0.123829 0.632567 -0.115000
v 0.115747 0.633356 -0.115000
v 0.106332 0.634287 -0.115000
v 0.095583 0.635362 -0.115000
v 0.083502 0.636580 -0.115000
v 0.070086 0.637942 -0.115000
v 0.055337 0.639446 -0.114997
v 0.039255 0.641095 -0.114997
v 0.020051 0.639823 -0.115000
v 0.002517 0.636010 -0.115000
v -0.013347 0.629654 -0.115000
v -0.027541 0.620757 -0.115000
v -0.040065 0.609317 -0.114997
v -0.050920 0.595334 -0.115000
v -0.060104 0.578810 -0.115000
v -0.067619 0.559743 -0.115000
v -0.073463 0.538134 -0.115000
v -0.077638 0.513982 -0.114997
v -0.080143 0.487289 -0.114997
v -0.080978 0.458053 -0.115000
v -0.080978 0.410947 -0.115000
v 0.123149 0.421265 -0.115000
v 0.128891 0.419505 -0.114997
v 0.134303 0.417514 -0.115000
v 0.139384 0.415293 -0.115000
v 0.144135 0.412841 -0.115000
v 0.148556 0.410158 -0.115000
v 0.152647 0.407245 -0.115000
v 0.156407 0.404102 -0.115000
v 0.159837 0.400728 -0.115000
v 0.162937 0.397123 -0.114997
v 0.165707 0.393288 -0.115000
v 0.168147 0.389222 -0.114997
v 0.170256 0.384926 -0.115000
v 0.170256 0.348138 -0.115000
v 0.168548 0.340614 -0.115000
v 0.163427 0.333745 -0.114997
v 0.154890 0.327529 -0.115000
v 0.142939 0.321968 -0.115000
v 0.127573 0.317061 -0.115000
v 0.108793 0.312808 -0.115000
v 0.086598 0.309210 -0.115000
v 0.060989 0.306266 -0.115000
v 0.031965 0.303976 -0.115000
v -0.000474 0.302340 -0.115000
v -0.036327 0.301359 -0.115000
v -0.075594 0.301032 -0.115000
v -0.072227 0.272790 -0.115000
v -0.069152 0.245638 -0.115000
v -0.066369 0.219577 -0.115000
v -0.063880 0.194606 -0.115000
v -0.061684 0.170726 -0.114997
v -0.059780 0.147936 -0.115000
v -0.058169 0.126237 -0.115000
v -0.056852 0.105628 -0.115000
v -0.055827 0.086109 -0.115000
v -0.055094 0.067681 -0.115000
v -0.054655 0.050343 -0.115000
v -0.054509 0.034096 -0.115000
v -0.054509 -0.002243 -0.115000
v -0.055970 -0.010627 -0.115000
v -0.057961 -0.018282 -0.115000
v -0.060481 -0.025208 -0.115000
v -0.063531 -0.031404 -0.115000
v -0.067111 -0.036872 -0.115000
v -0.071220 -0.041611 -0.115000
v -0.075859 -0.045620 -0.115000
v -0.081028 -0.048901 -0.115000
v -0.086726 -0.051453 -0.115000
v -0.092954 -0.053275 -0.115000
v -0.099711 -0.054369 -0.115000
v -0.106999 -0.054733 -0.115000
v -0.112382 -0.054733 -0.115000
v -0.119735 -0.054260 -0.115000
v -0.126539 -0.052839 -0.114997
v -0.132795 -0.050471 -0.114997
v -0.138503 -0.047156 -0.115000
v -0.143662 -0.042894 -0.115000
v -0.148273 -0.037685 -0.115000
v -0.152335 -0.031529 -0.115000
v -0.155850 -0.024426 -0.115000
v -0.158816 -0.016375 -0.115000
v -0.161233 -0.007378 -0.115000
v -0.163102 0.002567 -0.115000
v -0.164423 0.013459 -0.115000
v -0.164423 0.034096 -0.115000
v -0.190893 0.410947 -0.115000
v -0.190893 0.463436 -0.115000
v -0.189693 0.499324 -0.115000
v -0.186095 0.532962 -0.115000
v -0.180098 0.564351 -0.115000
v -0.171701 0.593490 -0.115000
v -0.160906 0.620380 -0.115000
v -0.147712 0.645020 -0.115000
v -0.132119 0.667411 -0.115000
v -0.114127 0.687553 -0.115000
v -0.093736 0.705445 -0.115000
v -0.070946 0.721088 -0.114997
v -0.045757 0.734482 -0.115000
v -0.018170 0.745626 -0.115000
vn -0.0000 0.0000 1.0000
vn 0.0000 -0.0000 -1.0000
vn 0.0001 -0.0014 -1.0000
vn -0.0000 0.0014 -1.0000
vn -0.0000 -0.0003 -1.0000
vn -0.0000 0.0002 -1.0000
vn -0.0000 0.0007 -1.0000
vn 0.0001 0.0019 -1.0000
vn -0.0000 -0.0014 -1.0000
vn -0.0000 0.0021 -1.0000
vn 0.0000 -0.0016 -1.0000
vn 0.0001 0.0007 -1.0000
vn -0.0001 -0.0064 -1.0000
vn -0.0001 0.0009 -1.0000
vn 0.0002 0.0091 -1.0000
vn -0.0000 0.0003 -1.0000
vn 0.0000 -0.0001 -1.0000
vn 0.0000 0.0001 -1.0000
vn 0.0001 -0.0017 -1.0000
vn -0.0000 0.0016 -1.0000
vn 0.0003 -0.0007 -1.0000
vn -0.0003 0.0007 -1.0000
vn -0.0002 0.0007 -1.0000
vn 0.0001 -0.0006 -1.0000
vn -0.0001 0.0007 -1.0000
vn 0.0002 -0.0001 -1.0000
vn -0.0002 0.0001 -1.0000
vn -0.0000 -0.0011 -1.0000
vn -0.0001 0.0002 -1.0000
vn -0.0001 -0.0002 -1.0000
vn -0.0001 0.0003 -1.0000
vn -0.0001 0.0021 -1.0000
vn 0.2931 0.9561 -0.0000
vn 0.0503 -0.9987 0.0000
vn 0.0787 -0.9969 0.0000
vn -0.0922 -0.9957 0.0000
vn 0.9930 0.1184 0.0000
vn 0.7582 0.6520 0.0000
vn 0.9980 0.0638 0.0000
vn 0.5311 -0.8473 0.0000
vn -0.9994 0.0334 -0.0000
vn 0.9304 -0.3667 0.0000
vn -0.3746 0.9272 -0.0000
vn 0.3042 -0.9526 0.0000
vn 0.4087 -0.9127 0.0000
vn 0.7699 0.6382 0.0000
vn 1.0000 -0.0000 0.0000
vn 0.9951 0.0992 0.0000
vn -0.1019 -0.9948 0.0000
vn 0.9752 -0.2213 0.0000
vn 0.1607 -0.9870 0.0000
vn 0.2856 0.9583 0.0000
vn 1.0000 0.0090 0.0000
vn 0.6543 -0.7562 0.0000
vn -0.9927 -0.1204 -0.0000
vn 0.9397 -0.3420 0.0000
vn -0.0995 -0.9950 0.0000
vn -0.9383 -0.3457 -0.0000
vn -0.6596 0.7517 0.0000
vn 0.3453 0.9385 0.0000
vn -0.6369 -0.7710 -0.0000
vn -0.0875 -0.9962 0.0000
vn -0.9280 0.3726 -0.0000
vn 0.0216 0.9998 0.0000
vn -0.0643 -0.9979 0.0000
vn 0.1142 -0.9935 0.0000
vn 0.6744 -0.7383 0.0000
vn 0.0083 -1.0000 0.0000
vn 0.9996 -0.0285 0.0000
vn -0.0985 -0.9951 0.0000
vn 0.9997 0.0253 0.0000
vn 0.9653 -0.2611 0.0000
vn -0.4695 0.8829 -0.0000
vn 0.9962 0.0872 0.0000
vn 0.9973 0.0740 0.0000
vn 0.4219 -0.9066 0.0000
vn 0.5801 0.8146 0.0000
vn -0.9943 0.1064 -0.0000
vn 0.0660 -0.9978 0.0000
vn 0.8107 0.5855 0.0000
vn 0.2809 -0.9597 0.0000
vn 0.9678 -0.2517 0.0000
vn 0.9383 -0.3457 0.0000
vn 0.2822 -0.9594 0.0000
vn -0.1003 -0.9950 0.0000
vn 0.7551 -0.6556 0.0000
vn 0.6377 0.7703 0.0000
vn 0.7555 -0.6552 0.0000
vn 0.4006 0.9163 0.0000
vn -0.2044 -0.9789 0.0000
vn -1.0000 -0.0000 -0.0000
vn 0.2004 0.9797 -0.0000
vn 0.0274 -0.9996 0.0000
vn -0.7488 -0.6628 -0.0000
vn -0.0780 -0.9970 0.0000
vn -0.5659 0.8245 -0.0000
vn -0.8816 0.4721 -0.0000
vn 0.1597 -0.9872 0.0000
vn 0.9992 0.0397 0.0000
vn 0.7899 -0.6132 0.0000
vn -0.0734 0.9973 -0.0000
vn 0.9943 0.1062 0.0000
vn -0.0971 -0.9953 0.0000
vn 0.6414 0.7672 0.0000
vn 0.9610 0.2764 0.0000
vn 0.1600 -0.9871 0.0000
vn 0.8575 0.5145 0.0000
vn 0.6539 -0.7566 0.0000
vn 0.9854 -0.1703 0.0000
vn 0.5886 -0.8084 0.0000
vn -0.9975 -0.0701 -0.0000
vn 0.4100 -0.9121 0.0000
vn 0.9666 -0.2564 0.0000
vn 0.9965 0.0832 0.0000
vn 0.2125 -0.9772 0.0000
vn 0.8366 -0.5477 0.0000
vn -0.1010 -0.9949 -0.0000
vn -0.9657 -0.2595 -0.0000
vn 0.5062 0.8624 -0.0000
vn 0.9851 -0.1717 0.0000
vn -0.3540 -0.9353 0.0000
vn 0.8357 -0.5492 0.0000
vn 0.1296 0.9916 -0.0000
vn -0.8346 -0.5508 -0.0000
vn -0.9822 0.1877 -0.0000
vn 0.4586 0.8886 0.0000
vn -0.0506 -0.9987 0.0000
vn -0.8206 0.5715 -0.0000
vn 0.9936 0.1125 0.0000
vn -0.0505 0.9987 -0.0000
vn 0.0500 -0.9988 0.0000
vn -0.0951 -0.9955 0.0000
vn 0.8741 -0.4858 0.0000
vn 0.0504 -0.9987 0.0000
vn 0.2209 -0.9753 0.0000
vn 0.7013 0.7129 0.0000
vn 0.9986 0.0524 0.0000
vn 0.5359 -0.8443 0.0000
vn 0.8836 0.4682 0.0000
vn 0.9956 -0.0934 0.0000
vn 0.9842 -0.1773 0.0000
vn 0.8977 0.4407 0.0000
vn 0.9958 0.0916 0.0000
vn 0.3719 -0.9283 0.0000
vn 0.5369 -0.8437 0.0000
vn 0.3875 0.9219 -0.0000
vn -0.1015 -0.9948 0.0000
vn 0.8017 -0.5977 0.0000
vn -0.9828 -0.1847 -0.0000
vn -0.8963 -0.4434 -0.0000
vn 0.8972 -0.4416 0.0000
vn -0.5022 -0.8647 -0.0000
vn 0.8959 -0.4442 0.0000
vn -0.9609 0.2769 -0.0000
vn 0.0708 0.9975 -0.0000
vn 0.5187 0.8549 0.0000
vn 0.0000 -1.0000 0.0000
vn -0.7458 0.6662 -0.0000
usemtl Material
s off
f 130//1 2//1 1//1
f 130//1 3//1 2//1
f 130//1 4//1 3//1
f 130//1 5//1 4//1
f 129//1 5//1 130//1
f 129//1 6//1 5//1
f 129//1 7//1 6//1
f 128//1 7//1 129//1
f 128//1 8//1 7//1
f 128//1 9//1 8//1
f 127//1 9//1 128//1
f 127//1 10//1 9//1
f 127//1 11//1 10//1
f 126//1 11//1 127//1
f 126//1 12//1 11//1
f 126//1 13//1 12//1
f 125//1 13//1 126//1
f 125//1 14//1 13//1
f 125//1 15//1 14//1
f 125//1 16//1 15//1
f 124//1 16//1 125//1
f 124//1 17//1 16//1
f 124//1 18//1 17//1
f 124//1 19//1 18//1
f 124//1 20//1 19//1
f 123//1 39//1 124//1
f 39//1 38//1 124//1
f 38//1 20//1 124//1
f 38//1 21//1 20//1
f 37//1 21//1 38//1
f 123//1 40//1 39//1
f 36//1 21//1 37//1
f 36//1 22//1 21//1
f 35//1 22//1 36//1
f 34//1 22//1 35//1
f 123//1 41//1 40//1
f 34//1 23//1 22//1
f 33//1 23//1 34//1
f 32//1 23//1 33//1
f 32//1 24//1 23//1
f 31//1 24//1 32//1
f 30//1 24//1 31//1
f 30//1 25//1 24//1
f 29//1 25//1 30//1
f 28//1 25//1 29//1
f 28//1 26//1 25//1
f 27//1 26//1 28//1
f 123//1 42//1 41//1
f 123//1 43//1 42//1
f 122//1 43//1 123//1
f 122//1 44//1 43//1
f 122//1 45//1 44//1
f 121//1 45//1 122//1
f 121//1 46//1 45//1
f 120//1 46//1 121//1
f 120//1 47//1 46//1
f 120//1 48//1 47//1
f 119//1 48//1 120//1
f 119//1 49//1 48//1
f 118//1 49//1 119//1
f 118//1 50//1 49//1
f 117//1 50//1 118//1
f 117//1 51//1 50//1
f 51//1 53//1 52//1
f 51//1 54//1 53//1
f 51//1 55//1 54//1
f 51//1 56//1 55//1
f 51//1 57//1 56//1
f 116//1 51//1 117//1
f 116//1 77//1 51//1
f 77//1 57//1 51//1
f 77//1 58//1 57//1
f 77//1 59//1 58//1
f 77//1 60//1 59//1
f 77//1 61//1 60//1
f 77//1 62//1 61//1
f 77//1 63//1 62//1
f 77//1 64//1 63//1
f 77//1 65//1 64//1
f 77//1 66//1 65//1
f 77//1 67//1 66//1
f 77//1 68//1 67//1
f 77//1 69//1 68//1
f 77//1 70//1 69//1
f 77//1 71//1 70//1
f 77//1 72//1 71//1
f 77//1 73//1 72//1
f 77//1 74//1 73//1
f 77//1 75//1 74//1
f 77//1 76//1 75//1
f 116//1 78//1 77//1
f 116//1 79//1 78//1
f 116//1 80//1 79//1
f 116//1 81//1 80//1
f 116//1 82//1 81//1
f 116//1 83//1 82//1
f 116//1 84//1 83//1
f 116//1 85//1 84//1
f 116//1 86//1 85//1
f 116//1 87//1 86//1
f 116//1 88//1 87//1
f 116//1 89//1 88//1
f 115//1 89//1 116//1
f 115//1 90//1 89//1
f 114//1 90//1 115//1
f 113//1 90//1 114//1
f 113//1 91//1 90//1
f 112//1 91//1 113//1
f 112//1 92//1 91//1
f 111//1 92//1 112//1
f 111//1 93//1 92//1
f 110//1 93//1 111//1
f 110//1 94//1 93//1
f 110//1 95//1 94//1
f 109//1 95//1 110//1
f 109//1 96//1 95//1
f 108//1 96//1 109//1
f 108//1 97//1 96//1
f 107//1 97//1 108//1
f 107//1 98//1 97//1
f 106//1 98//1 107//1
f 106//1 99//1 98//1
f 105//1 99//1 106//1
f 105//1 100//1 99//1
f 104//1 100//1 105//1
f 104//1 101//1 100//1
f 103//1 101//1 104//1
f 103//1 102//1 101//1
f 260//2 131//2 132//2
f 260//3 132//3 133//3
f 260//4 133//4 134//4
f 260//2 134//2 135//2
f 259//2 260//2 135//2
f 259//2 135//2 136//2
f 259//2 136//2 137//2
f 258//5 259//5 137//5
f 258//2 137//2 138//2
f 258//2 138//2 139//2
f 257//6 258//6 139//6
f 257//2 139//2 140//2
f 257//2 140//2 141//2
f 256//2 257//2 141//2
f 256//2 141//2 142//2
f 256//5 142//5 143//5
f 255//2 256//2 143//2
f 255//7 143//7 144//7
f 255//2 144//2 145//2
f 255//2 145//2 146//2
f 254//2 255//2 146//2
f 254//2 146//2 147//2
f 254//2 147//2 148//2
f 254//2 148//2 149//2
f 254//2 149//2 150//2
f 253//2 254//2 169//2
f 169//8 254//8 168//8
f 168//9 254//9 150//9
f 168//2 150//2 151//2
f 167//5 168//5 151//5
f 253//2 169//2 170//2
f 166//10 167//10 151//10
f 166//2 151//2 152//2
f 165//2 166//2 152//2
f 164//2 165//2 152//2
f 253//2 170//2 171//2
f 164//11 152//11 153//11
f 163//12 164//12 153//12
f 162//12 163//12 153//12
f 162//8 153//8 154//8
f 161//2 162//2 154//2
f 160//13 161//13 154//13
f 160//14 154//14 155//14
f 159//15 160//15 155//15
f 158//2 159//2 155//2
f 158//2 155//2 156//2
f 157//2 158//2 156//2
f 253//2 171//2 172//2
f 253//5 172//5 173//5
f 252//2 253//2 173//2
f 252//16 173//16 174//16
f 252//2 174//2 175//2
f 251//2 252//2 175//2
f 251//2 175//2 176//2
f 250//2 251//2 176//2
f 250//2 176//2 177//2
f 250//17 177//17 178//17
f 249//2 250//2 178//2
f 249//2 178//2 179//2
f 248//2 249//2 179//2
f 248//18 179//18 180//18
f 247//2 248//2 180//2
f 247//2 180//2 181//2
f 181//19 182//19 183//19
f 181//20 183//20 184//20
f 181//2 184//2 185//2
f 181//2 185//2 186//2
f 181//2 186//2 187//2
f 246//2 247//2 181//2
f 246//2 181//2 207//2
f 207//2 181//2 187//2
f 207//2 187//2 188//2
f 207//2 188//2 189//2
f 207//2 189//2 190//2
f 207//21 190//21 191//21
f 207//22 191//22 192//22
f 207//21 192//21 193//21
f 207//23 193//23 194//23
f 207//2 194//2 195//2
f 207//2 195//2 196//2
f 207//24 196//24 197//24
f 207//25 197//25 198//25
f 207//2 198//2 199//2
f 207//2 199//2 200//2
f 207//2 200//2 201//2
f 207//2 201//2 202//2
f 207//2 202//2 203//2
f 207//2 203//2 204//2
f 207//2 204//2 205//2
f 207//2 205//2 206//2
f 246//2 207//2 208//2
f 246//2 208//2 209//2
f 246//2 209//2 210//2
f 246//2 210//2 211//2
f 246//26 211//26 212//26
f 246//27 212//27 213//27
f 246//2 213//2 214//2
f 246//2 214//2 215//2
f 246//2 215//2 216//2
f 246//2 216//2 217//2
f 246//2 217//2 218//2
f 246//2 218//2 219//2
f 245//2 246//2 219//2
f 245//2 219//2 220//2
f 244//2 245//2 220//2
f 243//2 244//2 220//2
f 243//2 220//2 221//2
f 242//2 243//2 221//2
f 242//2 221//2 222//2
f 241//2 242//2 222//2
f 241//2 222//2 223//2
f 240//2 241//2 223//2
f 240//2 223//2 224//2
f 240//2 224//2 225//2
f 239//2 240//2 225//2
f 239//2 225//2 226//2
f 238//2 239//2 226//2
f 238//2 226//2 227//2
f 237//2 238//2 227//2
f 237//2 227//2 228//2
f 236//28 237//28 228//28
f 236//29 228//29 229//29
f 235//30 236//30 229//30
f 235//31 229//31 230//31
f 234//32 235//32 230//32
f 234//2 230//2 231//2
f 233//2 234//2 231//2
f 233//2 231//2 232//2
f 52//33 53//33 183//33 182//33
f 25//34 26//34 156//34 155//34
f 73//35 74//35 204//35 203//35
f 29//36 30//36 160//36 159//36
f 77//37 78//37 208//37 207//37
f 60//38 61//38 191//38 190//38
f 84//39 85//39 215//39 214//39
f 41//40 42//40 172//40 171//40
f 118//41 119//41 249//41 248//41
f 45//42 46//42 176//42 175//42
f 129//43 130//43 260//43 259//43
f 69//44 70//44 200//44 199//44
f 98//45 99//45 229//45 228//45
f 9//46 10//46 140//46 139//46
f 64//47 65//47 195//47 194//47
f 13//47 14//47 144//47 143//47
f 80//48 81//48 211//48 210//48
f 37//49 38//49 168//49 167//49
f 65//50 66//50 196//50 195//50
f 24//51 25//51 155//51 154//51
f 5//52 6//52 136//52 135//52
f 88//53 89//53 219//53 218//53
f 20//54 21//54 151//54 150//54
f 114//55 115//55 245//55 244//55
f 92//56 93//56 223//56 222//56
f 33//57 34//57 164//57 163//57
f 111//58 112//58 242//58 241//58
f 126//59 127//59 257//59 256//59
f 53//60 54//60 184//60 183//60
f 107//61 108//61 238//61 237//61
f 28//62 29//62 159//62 158//62
f 122//63 123//63 253//63 252//63
f 1//64 2//64 132//64 131//64
f 103//65 104//65 234//65 233//65
f 72//66 73//66 203//66 202//66
f 42//67 43//67 173//67 172//67
f 76//68 77//68 207//68 206//68
f 49//69 50//69 180//69 179//69
f 32//70 33//70 163//70 162//70
f 87//71 88//71 218//71 217//71
f 46//72 47//72 177//72 176//72
f 128//73 129//73 259//73 258//73
f 12//74 13//74 143//74 142//74
f 83//75 84//75 214//75 213//75
f 68//76 69//76 199//76 198//76
f 57//77 58//77 188//77 187//77
f 119//78 120//78 250//78 249//78
f 38//79 39//79 169//79 168//79
f 61//80 62//80 192//80 191//80
f 99//81 100//81 230//81 229//81
f 91//82 92//82 222//82 221//82
f 16//83 17//83 147//83 146//83
f 23//84 24//84 154//84 153//84
f 34//85 35//85 165//85 164//85
f 19//86 20//86 150//86 149//86
f 8//87 9//87 139//87 138//87
f 95//88 96//88 226//88 225//88
f 54//89 55//89 185//89 184//89
f 104//90 105//90 235//90 234//90
f 115//91 116//91 246//91 245//91
f 4//92 5//92 135//92 134//92
f 75//93 76//93 206//93 205//93
f 108//94 109//94 239//94 238//94
f 27//95 28//95 158//95 157//95
f 127//96 128//96 258//96 257//96
f 123//97 124//97 254//97 253//97
f 50//47 51//47 181//47 180//47
f 100//98 101//98 231//98 230//98
f 86//99 87//99 217//99 216//99
f 43//100 44//100 174//100 173//100
f 130//101 1//101 131//101 260//101
f 79//102 80//102 210//102 209//102
f 31//103 32//103 162//103 161//103
f 58//104 59//104 189//104 188//104
f 11//105 12//105 142//105 141//105
f 71//106 72//106 202//106 201//106
f 62//107 63//107 193//107 192//107
f 96//108 97//108 227//108 226//108
f 47//109 48//109 178//109 177//109
f 67//110 68//110 198//110 197//110
f 116//111 117//111 247//111 246//111
f 22//112 23//112 153//112 152//112
f 15//113 16//113 146//113 145//113
f 82//114 83//114 213//114 212//114
f 39//115 40//115 170//115 169//115
f 94//116 95//116 225//116 224//116
f 35//117 36//117 166//117 165//117
f 112//118 113//118 243//118 242//118
f 7//119 8//119 138//119 137//119
f 90//120 91//120 221//120 220//120
f 105//121 106//121 236//121 235//121
f 18//122 19//122 149//122 148//122
f 3//123 4//123 134//123 133//123
f 109//124 110//124 240//124 239//124
f 120//125 121//125 251//125 250//125
f 55//126 56//126 186//126 185//126
f 26//127 27//127 157//127 156//127
f 124//128 125//128 255//128 254//128
f 78//129 79//129 209//129 208//129
f 51//130 52//130 182//130 181//130
f 101//131 102//131 232//131 231//131
f 30//132 31//132 161//132 160//132
f 44//133 45//133 175//133 174//133
f 74//134 75//134 205//134 204//134
f 70//135 71//135 201//135 200//135
f 59//136 60//136 190//136 189//136
f 85//137 86//137 216//137 215//137
f 97//138 98//138 228//138 227//138
f 10//139 11//139 141//139 140//139
f 48//140 49//140 179//140 178//140
f 117//91 118//91 248//91 247//91
f 14//141 15//141 145//141 144//141
f 63//142 64//142 194//142 193//142
f 81//143 82//143 212//143 211//143
f 40//144 41//144 171//144 170//144
f 21//145 22//145 152//145 151//145
f 6//146 7//146 137//146 136//146
f 36//147 37//147 167//147 166//147
f 66//148 67//148 197//148 196//148
f 113//149 114//149 244//149 243//149
f 89//47 90//47 220//47 219//47
f 110//150 111//150 241//150 240//150
f 93//151 94//151 224//151 223//151
f 106//152 107//152 237//152 236//152
f 17//153 18//153 148//153 147//153
f 121//154 122//154 252//154 251//154
f 2//155 3//155 133//155 132//155
f 56//156 57//156 187//156 186//156
f 102//157 103//157 233//157 232//157
f 125//158 126//158 256//158 255//158
