# Blender v2.79 (sub 0) OBJ File: 'I.blend'
# www.blender.org
mtllib I.mtl
o A_Text
v 0.001570 0.710633 -0.000000
v 0.006505 0.710633 -0.000000
v 0.013038 0.710234 -0.000000
v 0.019179 0.709037 -0.000000
v 0.024927 0.707044 -0.000000
v 0.030283 0.704252 -0.000000
v 0.035246 0.700663 -0.000000
v 0.039816 0.696276 -0.000000
v 0.043994 0.691092 -0.000000
v 0.047779 0.685111 -0.000000
v 0.051172 0.678331 -0.000000
v 0.054172 0.670754 -0.000000
v 0.056780 0.662380 -0.000000
v 0.058995 0.653208 -0.000000
v 0.058172 0.637658 -0.000000
v 0.057500 0.618825 -0.000000
v 0.056976 0.596708 -0.000000
v 0.056602 0.571308 -0.000000
v 0.056378 0.542623 -0.000000
v 0.056303 0.510655 -0.000000
v 0.056378 0.475403 -0.000000
v 0.056602 0.436868 -0.000000
v 0.056976 0.395048 -0.000000
v 0.057500 0.349945 -0.000000
v 0.058173 0.301558 -0.000000
v 0.058995 0.249888 -0.000000
v 0.058135 0.222730 -0.000000
v 0.057350 0.197186 -0.000000
v 0.056640 0.173256 -0.000000
v 0.056004 0.150940 -0.000000
v 0.055443 0.130237 -0.000000
v 0.054957 0.111149 -0.000000
v 0.054546 0.093674 -0.000000
v 0.054210 0.077813 -0.000000
v 0.053948 0.063566 -0.000000
v 0.053761 0.050932 0.000000
v 0.053649 0.039913 0.000000
v 0.053611 0.030507 0.000000
v 0.050234 0.023771 0.000000
v 0.046683 0.017621 0.000000
v 0.042956 0.012057 0.000000
v 0.039056 0.007078 0.000000
v 0.034981 0.002686 0.000000
v 0.030731 -0.001122 0.000000
v 0.026307 -0.004343 0.000000
v 0.021709 -0.006979 0.000000
v 0.016936 -0.009029 0.000000
v 0.011988 -0.010493 0.000000
v 0.006867 -0.011372 0.000000
v 0.001570 -0.011664 0.000000
v -0.005891 -0.011228 0.000000
v -0.012873 -0.009920 -0.000000
v -0.019375 -0.007739 -0.000000
v -0.025398 -0.004686 -0.000000
v -0.030940 -0.000760 -0.000000
v -0.036003 0.004038 -0.000000
v -0.040586 0.009708 -0.000000
v -0.044689 0.016250 -0.000000
v -0.048312 0.023665 -0.000000
v -0.051456 0.031953 -0.000000
v -0.054119 0.041112 -0.000000
v -0.056303 0.051144 -0.000000
v -0.050920 0.229251 -0.000000
v -0.051780 0.285336 -0.000000
v -0.052565 0.337246 -0.000000
v -0.053275 0.384982 -0.000000
v -0.053911 0.428543 -0.000000
v -0.054471 0.467929 -0.000000
v -0.054957 0.503140 -0.000000
v -0.055369 0.534177 -0.000000
v -0.055705 0.561039 -0.000000
v -0.055967 0.583726 -0.000000
v -0.056154 0.602238 -0.000000
v -0.056266 0.616576 -0.000000
v -0.056303 0.626738 -0.000000
v -0.055010 0.640138 -0.000000
v -0.053076 0.652373 -0.000000
v -0.050499 0.663442 -0.000000
v -0.047281 0.673346 -0.000000
v -0.043421 0.682085 -0.000000
v -0.038919 0.689659 -0.000000
v -0.033775 0.696068 -0.000000
v -0.027990 0.701311 -0.000000
v -0.021562 0.705389 -0.000000
v -0.014493 0.708302 -0.000000
v -0.006783 0.710050 -0.000000
v 0.001570 0.710633 -0.115000
v 0.006505 0.710633 -0.115000
v 0.013038 0.710234 -0.115000
v 0.019179 0.709037 -0.114997
v 0.024927 0.707044 -0.115000
v 0.030283 0.704252 -0.115000
v 0.035246 0.700663 -0.115000
v 0.039816 0.696276 -0.115000
v 0.043994 0.691092 -0.115000
v 0.047779 0.685111 -0.115000
v 0.051172 0.678331 -0.115000
v 0.054172 0.670754 -0.115000
v 0.056780 0.662380 -0.115000
v 0.058995 0.653208 -0.114997
v 0.058173 0.637658 -0.115000
v 0.057500 0.618825 -0.115000
v 0.056976 0.596708 -0.115000
v 0.056602 0.571308 -0.115000
v 0.056378 0.542623 -0.115000
v 0.056303 0.510655 -0.115000
v 0.056378 0.475403 -0.114997
v 0.056602 0.436868 -0.115000
v 0.056976 0.395048 -0.115000
v 0.057500 0.349945 -0.115000
v 0.058173 0.301558 -0.114997
v 0.058995 0.249888 -0.115000
v 0.058135 0.222730 -0.114997
v 0.057350 0.197186 -0.115000
v 0.056640 0.173256 -0.114997
v 0.056004 0.150940 -0.115000
v 0.055443 0.130237 -0.114997
v 0.054957 0.111148 -0.115000
v 0.054546 0.093674 -0.115000
v 0.054210 0.077813 -0.114997
v 0.053948 0.063565 -0.114996
v 0.053761 0.050932 -0.114996
v 0.053649 0.039913 -0.115000
v 0.053612 0.030507 -0.115000
v 0.050234 0.023771 -0.115000
v 0.046683 0.017621 -0.115000
v 0.042957 0.012057 -0.115000
v 0.039056 0.007078 -0.114996
v 0.034981 0.002686 -0.115000
v 0.030731 -0.001122 -0.114996
v 0.026307 -0.004343 -0.114996
v 0.021709 -0.006979 -0.115000
v 0.016936 -0.009029 -0.114996
v 0.011988 -0.010493 -0.115000
v 0.006867 -0.011372 -0.115000
v 0.001570 -0.011664 -0.115000
v -0.005891 -0.011228 -0.115000
v -0.012873 -0.009920 -0.115000
v -0.019375 -0.007739 -0.115000
v -0.025398 -0.004686 -0.115000
v -0.030940 -0.000760 -0.115000
v -0.036003 0.004038 -0.115000
v -0.040586 0.009708 -0.114997
v -0.044689 0.016250 -0.114997
v -0.048312 0.023665 -0.114997
v -0.051456 0.031953 -0.115000
v -0.054119 0.041112 -0.115000
v -0.056303 0.051144 -0.114997
v -0.050920 0.229251 -0.115000
v -0.051780 0.285336 -0.115000
v -0.052565 0.337246 -0.115000
v -0.053275 0.384982 -0.115000
v -0.053911 0.428543 -0.115000
v -0.054471 0.467929 -0.115000
v -0.054957 0.503140 -0.115000
v -0.055369 0.534177 -0.114997
v -0.055705 0.561039 -0.115000
v -0.055967 0.583726 -0.115000
v -0.056154 0.602238 -0.115000
v -0.056266 0.616576 -0.115000
v -0.056303 0.626738 -0.115000
v -0.055010 0.640138 -0.115000
v -0.053076 0.652373 -0.114997
v -0.050499 0.663442 -0.115000
v -0.047281 0.673346 -0.115000
v -0.043421 0.682085 -0.115000
v -0.038919 0.689659 -0.115000
v -0.033775 0.696068 -0.115000
v -0.027990 0.701311 -0.115000
v -0.021562 0.705389 -0.115000
v -0.014493 0.708302 -0.115000
v -0.006783 0.710050 -0.115000
vn -0.0000 0.0000 1.0000
vn 0.0000 0.0000 -1.0000
vn 0.0000 -0.0028 -1.0000
vn 0.0001 -0.0005 -1.0000
vn 0.0001 0.0019 -1.0000
vn -0.0000 -0.0003 -1.0000
vn 0.0000 -0.0004 -1.0000
vn -0.0000 0.0002 -1.0000
vn 0.0000 0.0003 -1.0000
vn -0.0000 -0.0001 -1.0000
vn -0.0000 0.0001 -1.0000
vn -0.0002 0.0001 -1.0000
vn 0.0002 -0.0002 -1.0000
vn -0.0002 0.0002 -1.0000
vn 0.0001 -0.0002 -1.0000
vn -0.0001 0.0002 -1.0000
vn 0.0000 0.0004 -1.0000
vn -0.0000 -0.0007 -1.0000
vn 0.0000 0.0006 -1.0000
vn 0.0000 0.0008 -1.0000
vn 0.0001 -0.0010 -1.0000
vn 0.0001 0.0001 -1.0000
vn 0.0001 -0.0001 -1.0000
vn 0.0001 0.0012 -1.0000
vn 0.0000 -0.0018 -1.0000
vn 0.0001 0.0003 -1.0000
vn 0.0001 0.0022 -1.0000
vn 0.9995 -0.0316 0.0000
vn 0.9721 0.2348 0.0000
vn -0.9999 -0.0153 -0.0000
vn -0.9999 -0.0142 -0.0000
vn -0.3180 -0.9481 0.0000
vn 0.9994 -0.0357 0.0000
vn 1.0000 -0.0040 0.0000
vn 0.9996 -0.0271 0.0000
vn -0.0584 -0.9983 0.0000
vn 1.0000 0.0058 0.0000
vn 0.8660 -0.5001 0.0000
vn -0.9510 0.3090 -0.0000
vn 0.5886 -0.8084 0.0000
vn 0.9999 0.0116 0.0000
vn -0.7799 0.6259 -0.0000
vn -0.9999 -0.0101 -0.0000
vn 0.4622 0.8868 0.0000
vn 0.7331 -0.6801 0.0000
vn 0.9999 -0.0148 0.0000
vn 0.9997 -0.0235 0.0000
vn -0.9602 -0.2792 -0.0000
vn -1.0000 -0.0037 -0.0000
vn 0.6924 0.7215 0.0000
vn -0.9999 -0.0149 -0.0000
vn 1.0000 -0.0023 0.0000
vn -0.8985 -0.4390 -0.0000
vn -0.9877 0.1562 -0.0000
vn 0.3946 -0.9188 0.0000
vn 0.9548 0.2973 0.0000
vn -0.9999 -0.0125 -0.0000
vn 0.1912 0.9815 0.0000
vn -0.0696 0.9976 0.0000
vn 0.9998 -0.0212 0.0000
vn 0.8943 0.4475 0.0000
vn -0.9995 0.0302 -0.0000
vn 0.9999 -0.0147 0.0000
vn -0.3810 0.9246 -0.0000
vn 0.1691 -0.9856 0.0000
vn 0.9995 -0.0307 0.0000
vn -0.4522 -0.8919 0.0000
vn 0.9986 -0.0528 0.0000
vn -0.9999 -0.0138 -0.0000
vn 0.0000 1.0000 -0.0000
vn 0.8939 -0.4482 0.0000
vn -0.6879 -0.7258 -0.0000
vn -0.9954 0.0960 -0.0000
vn -0.9999 -0.0151 -0.0000
vn 1.0000 0.0089 0.0000
vn 0.9999 0.0159 0.0000
vn -0.1842 -0.9829 0.0000
vn 0.9997 -0.0237 0.0000
vn 0.8309 -0.5564 0.0000
vn 0.5860 0.8103 0.0000
vn 0.9996 -0.0285 0.0000
vn -0.8596 0.5110 -0.0000
vn 0.6673 -0.7448 0.0000
vn 0.9999 0.0139 0.0000
vn 0.9999 -0.0102 0.0000
vn 0.9997 -0.0255 0.0000
vn -0.6715 0.7410 -0.0000
vn 0.0552 -0.9985 0.0000
vn -1.0000 -0.0078 -0.0000
vn 0.9998 -0.0184 0.0000
vn -0.9350 -0.3547 -0.0000
vn -0.9147 0.4040 -0.0000
vn 0.7786 0.6275 -0.0000
vn -0.9999 -0.0146 -0.0000
vn 1.0000 0.0021 0.0000
vn 0.9298 0.3682 0.0000
vn -0.9740 0.2267 -0.0000
vn 0.7872 -0.6167 0.0000
vn 1.0000 -0.0078 0.0000
vn -0.5780 -0.8161 0.0000
vn 0.3277 0.9448 -0.0000
vn -0.8472 -0.5313 -0.0000
vn 0.0609 0.9981 -0.0000
vn 0.4973 -0.8676 0.0000
vn -0.2211 0.9753 -0.0000
vn 0.8450 0.5347 0.0000
vn -0.9999 -0.0115 -0.0000
vn 0.2838 -0.9589 0.0000
vn 0.9996 -0.0297 0.0000
vn -0.5358 0.8444 -0.0000
vn -0.7777 -0.6286 -0.0000
vn -0.9771 -0.2127 -0.0000
vn -0.9999 -0.0132 -0.0000
usemtl Material
s off
f 86//1 2//1 1//1
f 86//1 3//1 2//1
f 86//1 4//1 3//1
f 85//1 4//1 86//1
f 85//1 5//1 4//1
f 84//1 5//1 85//1
f 84//1 6//1 5//1
f 83//1 6//1 84//1
f 83//1 7//1 6//1
f 82//1 7//1 83//1
f 82//1 8//1 7//1
f 82//1 9//1 8//1
f 81//1 9//1 82//1
f 81//1 10//1 9//1
f 80//1 10//1 81//1
f 80//1 11//1 10//1
f 79//1 11//1 80//1
f 79//1 12//1 11//1
f 78//1 12//1 79//1
f 78//1 13//1 12//1
f 77//1 13//1 78//1
f 77//1 14//1 13//1
f 77//1 15//1 14//1
f 76//1 15//1 77//1
f 75//1 15//1 76//1
f 75//1 16//1 15//1
f 74//1 16//1 75//1
f 74//1 17//1 16//1
f 73//1 17//1 74//1
f 72//1 17//1 73//1
f 72//1 18//1 17//1
f 71//1 18//1 72//1
f 71//1 19//1 18//1
f 70//1 19//1 71//1
f 70//1 20//1 19//1
f 69//1 20//1 70//1
f 69//1 21//1 20//1
f 68//1 21//1 69//1
f 68//1 22//1 21//1
f 67//1 22//1 68//1
f 67//1 23//1 22//1
f 66//1 23//1 67//1
f 66//1 24//1 23//1
f 65//1 24//1 66//1
f 65//1 25//1 24//1
f 64//1 25//1 65//1
f 64//1 26//1 25//1
f 63//1 26//1 64//1
f 63//1 27//1 26//1
f 62//1 27//1 63//1
f 62//1 28//1 27//1
f 62//1 29//1 28//1
f 62//1 30//1 29//1
f 62//1 31//1 30//1
f 62//1 32//1 31//1
f 62//1 33//1 32//1
f 62//1 34//1 33//1
f 62//1 35//1 34//1
f 62//1 36//1 35//1
f 61//1 36//1 62//1
f 61//1 37//1 36//1
f 60//1 37//1 61//1
f 60//1 38//1 37//1
f 59//1 38//1 60//1
f 59//1 39//1 38//1
f 59//1 40//1 39//1
f 58//1 40//1 59//1
f 58//1 41//1 40//1
f 57//1 41//1 58//1
f 57//1 42//1 41//1
f 56//1 42//1 57//1
f 56//1 43//1 42//1
f 55//1 43//1 56//1
f 55//1 44//1 43//1
f 54//1 44//1 55//1
f 54//1 45//1 44//1
f 54//1 46//1 45//1
f 53//1 46//1 54//1
f 53//1 47//1 46//1
f 52//1 47//1 53//1
f 52//1 48//1 47//1
f 51//1 48//1 52//1
f 51//1 49//1 48//1
f 50//1 49//1 51//1
f 172//2 87//2 88//2
f 172//2 88//2 89//2
f 172//3 89//3 90//3
f 171//4 172//4 90//4
f 171//5 90//5 91//5
f 170//2 171//2 91//2
f 170//2 91//2 92//2
f 169//2 170//2 92//2
f 169//2 92//2 93//2
f 168//2 169//2 93//2
f 168//2 93//2 94//2
f 168//2 94//2 95//2
f 167//2 168//2 95//2
f 167//2 95//2 96//2
f 166//2 167//2 96//2
f 166//2 96//2 97//2
f 165//2 166//2 97//2
f 165//2 97//2 98//2
f 164//2 165//2 98//2
f 164//2 98//2 99//2
f 163//6 164//6 99//6
f 163//7 99//7 100//7
f 163//8 100//8 101//8
f 162//9 163//9 101//9
f 161//2 162//2 101//2
f 161//2 101//2 102//2
f 160//2 161//2 102//2
f 160//2 102//2 103//2
f 159//2 160//2 103//2
f 158//2 159//2 103//2
f 158//2 103//2 104//2
f 157//2 158//2 104//2
f 157//2 104//2 105//2
f 156//10 157//10 105//10
f 156//2 105//2 106//2
f 155//11 156//11 106//11
f 155//10 106//10 107//10
f 154//2 155//2 107//2
f 154//11 107//11 108//11
f 153//2 154//2 108//2
f 153//2 108//2 109//2
f 152//2 153//2 109//2
f 152//2 109//2 110//2
f 151//2 152//2 110//2
f 151//10 110//10 111//10
f 150//2 151//2 111//2
f 150//11 111//11 112//11
f 149//2 150//2 112//2
f 149//10 112//10 113//10
f 148//2 149//2 113//2
f 148//12 113//12 114//12
f 148//13 114//13 115//13
f 148//14 115//14 116//14
f 148//15 116//15 117//15
f 148//16 117//16 118//16
f 148//2 118//2 119//2
f 148//15 119//15 120//15
f 148//2 120//2 121//2
f 148//2 121//2 122//2
f 147//17 148//17 122//17
f 147//9 122//9 123//9
f 146//2 147//2 123//2
f 146//2 123//2 124//2
f 145//7 146//7 124//7
f 145//2 124//2 125//2
f 145//2 125//2 126//2
f 144//2 145//2 126//2
f 144//2 126//2 127//2
f 143//2 144//2 127//2
f 143//18 127//18 128//18
f 142//19 143//19 128//19
f 142//20 128//20 129//20
f 141//2 142//2 129//2
f 141//21 129//21 130//21
f 140//22 141//22 130//22
f 140//23 130//23 131//23
f 140//24 131//24 132//24
f 139//2 140//2 132//2
f 139//25 132//25 133//25
f 138//26 139//26 133//26
f 138//27 133//27 134//27
f 137//2 138//2 134//2
f 137//2 134//2 135//2
f 136//2 137//2 135//2
f 26//28 27//28 113//28 112//28
f 13//29 14//29 100//29 99//29
f 63//30 64//30 150//30 149//30
f 67//31 68//31 154//31 153//31
f 52//32 53//32 139//32 138//32
f 15//33 16//33 102//33 101//33
f 37//34 38//34 124//34 123//34
f 30//35 31//35 117//35 116//35
f 50//36 51//36 137//36 136//36
f 21//37 22//37 108//37 107//37
f 39//38 40//38 126//38 125//38
f 78//39 79//39 165//39 164//39
f 44//40 45//40 131//40 130//40
f 23//41 24//41 110//41 109//41
f 81//42 82//42 168//42 167//42
f 72//43 73//43 159//43 158//43
f 5//44 6//44 92//44 91//44
f 42//45 43//45 129//45 128//45
f 35//46 36//46 122//46 121//46
f 32//47 33//47 119//47 118//47
f 60//48 61//48 147//48 146//48
f 74//49 75//49 161//49 160//49
f 7//50 8//50 94//50 93//50
f 65//51 66//51 152//51 151//51
f 19//52 20//52 106//52 105//52
f 58//53 59//53 145//53 144//53
f 76//54 77//54 163//54 162//54
f 46//55 47//55 133//55 132//55
f 12//56 13//56 99//56 98//56
f 70//57 71//57 157//57 156//57
f 3//58 4//58 90//58 89//58
f 86//59 1//59 87//59 172//59
f 33//60 34//60 120//60 119//60
f 10//61 11//61 97//61 96//61
f 62//62 63//62 149//62 148//62
f 17//63 18//63 104//63 103//63
f 84//64 85//64 171//64 170//64
f 48//65 49//65 135//65 134//65
f 27//66 28//66 114//66 113//66
f 53//67 54//67 140//67 139//67
f 14//68 15//68 101//68 100//68
f 68//69 69//69 155//69 154//69
f 1//70 2//70 88//70 87//70
f 38//71 39//71 125//71 124//71
f 55//72 56//72 142//72 141//72
f 75//73 76//73 162//73 161//73
f 64//74 65//74 151//74 150//74
f 22//75 23//75 109//75 108//75
f 25//76 26//76 112//76 111//76
f 51//77 52//77 138//77 137//77
f 16//78 17//78 103//78 102//78
f 40//79 41//79 127//79 126//79
f 6//80 7//80 93//80 92//80
f 29//81 30//81 116//81 115//81
f 80//82 81//82 167//82 166//82
f 43//83 44//83 130//83 129//83
f 24//84 25//84 111//84 110//84
f 36//85 37//85 123//85 122//85
f 31//86 32//86 118//86 117//86
f 82//87 83//87 169//87 168//87
f 49//88 50//88 136//88 135//88
f 73//89 74//89 160//89 159//89
f 34//90 35//90 121//90 120//90
f 59//91 60//91 146//91 145//91
f 79//92 80//92 166//92 165//92
f 8//93 9//93 95//93 94//93
f 66//94 67//94 153//94 152//94
f 20//95 21//95 107//95 106//95
f 11//96 12//96 98//96 97//96
f 77//97 78//97 164//97 163//97
f 41//98 42//98 128//98 127//98
f 18//99 19//99 105//99 104//99
f 54//100 55//100 141//100 140//100
f 4//101 5//101 91//101 90//101
f 57//102 58//102 144//102 143//102
f 2//103 3//103 89//103 88//103
f 45//104 46//104 132//104 131//104
f 85//105 86//105 172//105 171//105
f 9//106 10//106 96//106 95//106
f 71//107 72//107 158//107 157//107
f 47//108 48//108 134//108 133//108
f 28//109 29//109 115//109 114//109
f 83//110 84//110 170//110 169//110
f 56//111 57//111 143//111 142//111
f 61//112 62//112 148//112 147//112
f 69//113 70//113 156//113 155//113
